<svg width="40" height="41" viewBox="0 0 40 41" fill="none" xmlns="http://www.w3.org/2000/svg">
<rect x="0.5" y="1.37793" width="39" height="39" rx="11.5" fill="#023540"/>
<rect x="0.5" y="1.37793" width="39" height="39" rx="11.5" stroke="white"/>
<g clip-path="url(#clip0_1240_3259)">
<g clip-path="url(#clip1_1240_3259)">
<path d="M15.3621 14.4612C15.3619 14.9474 15.1685 15.4137 14.8245 15.7573C14.4805 16.1009 14.0141 16.2939 13.5279 16.2936C13.0416 16.2934 12.5754 16.1 12.2318 15.756C11.8881 15.412 11.6952 14.9456 11.6954 14.4594C11.6957 13.9731 11.8891 13.5069 12.2331 13.1633C12.577 12.8196 13.0435 12.6267 13.5297 12.627C14.0159 12.6272 14.4821 12.8206 14.8258 13.1646C15.1694 13.5086 15.3623 13.975 15.3621 14.4612ZM15.4171 17.6512H11.7504V29.1279H15.4171V17.6512ZM21.2104 17.6512H17.5621V29.1279H21.1737V23.1054C21.1737 19.7504 25.5462 19.4387 25.5462 23.1054V29.1279H29.1671V21.8587C29.1671 16.2029 22.6954 16.4137 21.1737 19.1912L21.2104 17.6512Z" fill="white"/>
</g>
</g>
<defs>
<clipPath id="clip0_1240_3259">
<rect width="22" height="22" fill="white" transform="translate(9 9.87793)"/>
</clipPath>
<clipPath id="clip1_1240_3259">
<rect width="22" height="22" fill="white" transform="translate(9 9.87793)"/>
</clipPath>
</defs>
</svg>
